<svg id="Layer_1" data-name="Layer 1" xmlns="http://www.w3.org/2000/svg" viewBox="0 0 981.82 1000.02"><defs><style>.cls-1,.cls-34,.cls-5{fill:#505050;}.cls-1,.cls-2{opacity:0.6;}.cls-1,.cls-2,.cls-32,.cls-34,.cls-35{isolation:isolate;}.cls-11,.cls-2,.cls-35{fill:#323232;}.cls-3{fill:#1e1e1e;}.cls-4{fill:#2d2d2d;}.cls-6{fill:#787878;}.cls-7{fill:#fc6;}.cls-8{fill:#1a75ff;}.cls-9{fill:#993d00;}.cls-10{fill:#ffd480;}.cls-12{fill:#fcbeae;}.cls-13{fill:#fab4aa;}.cls-14{fill:#fcb09c;}.cls-15{fill:#f60;}.cls-16{fill:#1a5aff;}.cls-17{fill:#152340;}.cls-18{fill:#919191;}.cls-19{fill:#737373;}.cls-20{fill:#a6a6a6;}.cls-21{fill:#2d3954;}.cls-22{fill:#f5be8c;}.cls-23{fill:#e68c46;}.cls-24{fill:#555;}.cls-25{fill:#b32400;}.cls-26{fill:#2b2a29;}.cls-27{fill:#f4f9ff;}.cls-28{fill:#434242;}.cls-29{fill:#fca28b;}.cls-30{fill:#ab2421;}.cls-31{fill:#fff;}.cls-32{fill:#333231;opacity:0.3;}.cls-33{fill:#a1d8ff;}.cls-34{opacity:0.8;}.cls-35{opacity:0.6;}</style></defs><path class="cls-1" d="M352.43,468.13,171.8,456q2.3-64,4.6-127.93,90,2.94,179.93,5.88Q354.4,401,352.43,468.13Z" transform="translate(-18.18)"/><path class="cls-2" d="M335.19,357.7l-131.14-5.3a3.55,3.55,0,0,1-3.39-3.67h0a3.55,3.55,0,0,1,3.67-3.39l131.14,5.3a3.54,3.54,0,0,1,3.39,3.67h0A3.53,3.53,0,0,1,335.19,357.7Z" transform="translate(-18.18)"/><path class="cls-2" d="M257,372l-53.7-2.17a3.52,3.52,0,0,1-3.38-3.66h0a3.53,3.53,0,0,1,3.66-3.39l53.7,2.17a3.53,3.53,0,0,1,3.38,3.67h0A3.52,3.52,0,0,1,257,372Z" transform="translate(-18.18)"/><path class="cls-2" d="M333.75,393.26l-62-2.51a3.55,3.55,0,0,1-3.39-3.67h0a3.55,3.55,0,0,1,3.67-3.39l62,2.51a3.55,3.55,0,0,1,3.39,3.67h0A3.53,3.53,0,0,1,333.75,393.26Z" transform="translate(-18.18)"/><path class="cls-2" d="M333.27,405.2l-131.14-5.3a3.52,3.52,0,0,1-3.39-3.66h0a3.53,3.53,0,0,1,3.66-3.39l131.15,5.3a3.53,3.53,0,0,1,3.38,3.67h0A3.51,3.51,0,0,1,333.27,405.2Z" transform="translate(-18.18)"/><path class="cls-2" d="M332.64,420.83l-131.14-5.3a3.53,3.53,0,0,1-3.39-3.67h0a3.54,3.54,0,0,1,3.66-3.39l131.15,5.3a3.53,3.53,0,0,1,3.38,3.67h0A3.53,3.53,0,0,1,332.64,420.83Z" transform="translate(-18.18)"/><rect class="cls-3" x="826.58" y="0.46" width="151.51" height="998.75"/><rect class="cls-4" x="334.63" y="0.46" width="501.08" height="998.75"/><path class="cls-5" d="M816.83,700.49,639.31,665q10.59-63.13,21.2-126.26L838.16,568Q827.48,634.24,816.83,700.49Z" transform="translate(-18.18)"/><rect class="cls-6" x="319.06" y="0.18" width="18.27" height="999.61"/><path class="cls-5" d="M578.17,194.1l-181-4.8q-.29-64-.58-128l180-1.38Q577.4,127,578.17,194.1Z" transform="translate(-18.18)"/><rect class="cls-5" x="579.27" width="1.96" height="999.61"/><rect class="cls-6" x="826.58" y="0.46" width="18.27" height="998.7"/><rect class="cls-6" x="974.32" y="0.46" width="7.51" height="998.75"/><path class="cls-7" d="M447.3,882.41a348.86,348.86,0,0,1-47.47,28.07c-10.63,5.16-20,9-28.45,19.1-6.89,8.24-9.66,16.4-12.43,24.89a125.75,125.75,0,0,0-6,45.33l63.55-1a65.67,65.67,0,0,1,8.89-40.8c14.46-23.8,39.31-29.16,43.55-30q33.46-8.76,66.93-17.52l13.36-5Q498.26,893.92,447.3,882.41Z" transform="translate(-18.18)"/><rect class="cls-8" x="559.47" y="578.39" width="93.04" height="41.22"/><path class="cls-9" d="M546.52,995.52H662.4a10.67,10.67,0,0,0,10.67-10.66v-.6a10.67,10.67,0,0,0-10.67-10.67H546.52a10.67,10.67,0,0,0-10.67,10.67v.6A10.66,10.66,0,0,0,546.52,995.52Z" transform="translate(-18.18)"/><path class="cls-9" d="M769.21,776.78q-2.75,21.83-5.51,43.66s-8,37.62-14.22,52.73-19.56,39.7-19.56,39.7l-21,32.59c19.49,4.1,33.61,9.64,38.23,14.22a12.49,12.49,0,0,1,4,7.11,9.59,9.59,0,0,1-1.33,6.67c-1.89,2.75-5,3.49-9.33,4.44a36.49,36.49,0,0,1-7.56.89c-9.47,0-8.19,1.08-24,1.33-8,.13-18.36,0-30.51-.88l-17.19,16.29L647,952.88a70.42,70.42,0,0,1,3.71-25.82c9.53-27.41,34.71-41.21,43.8-46.82C716.73,866.49,744.83,838.72,769.21,776.78Z" transform="translate(-18.18)"/><path class="cls-10" d="M469.75,999.07l52.81-55.69H643.43a34.36,34.36,0,0,0,19.49-13.58c8.76-12.9,4.79-27,4.22-28.89l-140,2.22a126,126,0,0,0-27.11,4,130.18,130.18,0,0,0-52.44,28,77.12,77.12,0,0,0-23.11,20.44c-3.95,5.29-10.62,14.39-12.88,28a57,57,0,0,0-.44,15.58Q440.46,999.13,469.75,999.07Z" transform="translate(-18.18)"/><path class="cls-11" d="M811.4,595,682.47,570.41a3.53,3.53,0,0,1-2.81-4.12h0a3.52,3.52,0,0,1,4.12-2.81L812.72,588a3.54,3.54,0,0,1,2.81,4.13h0A3.55,3.55,0,0,1,811.4,595Z" transform="translate(-18.18)"/><path class="cls-11" d="M732,597.58l-52.79-10.05a3.54,3.54,0,0,1-2.81-4.13h0a3.54,3.54,0,0,1,4.13-2.81l52.78,10.06a3.52,3.52,0,0,1,2.81,4.12h0A3.52,3.52,0,0,1,732,597.58Z" transform="translate(-18.18)"/><path class="cls-11" d="M804.74,629.91l-61-11.62a3.53,3.53,0,0,1-2.81-4.12h0a3.52,3.52,0,0,1,4.12-2.81l61,11.61a3.54,3.54,0,0,1,2.81,4.13h0A3.53,3.53,0,0,1,804.74,629.91Z" transform="translate(-18.18)"/><path class="cls-11" d="M802.51,641.65,673.58,617.11a3.55,3.55,0,0,1-2.81-4.13h0a3.53,3.53,0,0,1,4.12-2.81l128.93,24.55a3.53,3.53,0,0,1,2.82,4.12h0A3.52,3.52,0,0,1,802.51,641.65Z" transform="translate(-18.18)"/><path class="cls-11" d="M799.58,657,670.65,632.47a3.53,3.53,0,0,1-2.81-4.12h0a3.53,3.53,0,0,1,4.13-2.81L800.9,650.08a3.54,3.54,0,0,1,2.81,4.13h0A3.54,3.54,0,0,1,799.58,657Z" transform="translate(-18.18)"/><path class="cls-11" d="M756,664.35l-88.17-16.79a3.52,3.52,0,0,1-2.81-4.12h0a3.52,3.52,0,0,1,4.12-2.81l88.18,16.78a3.54,3.54,0,0,1,2.81,4.13h0A3.53,3.53,0,0,1,756,664.35Z" transform="translate(-18.18)"/><path class="cls-8" d="M546.85,608a141.3,141.3,0,0,0-26.07,42.41,138.48,138.48,0,0,0-5.93,19.26l26.66,8.21,10.66-34.95Z" transform="translate(-18.18)"/><path class="cls-12" d="M517.53,670.12q-15,34.59-29.93,69.19l-85.32,70.25h53.84q6.79-4.75,13.62-9.65,30.88-22.11,59.33-44.61l16.59-85.91Z" transform="translate(-18.18)"/><path class="cls-13" d="M412.77,820.82h-21a11,11,0,0,1-10.95-11v-.62a11,11,0,0,1,10.95-11h21a11,11,0,0,1,11,11v.62A11,11,0,0,1,412.77,820.82Z" transform="translate(-18.18)"/><polygon class="cls-14" points="570.15 544.86 572.82 592.37 567.48 604.51 578.15 638.87 625.55 627.5 640.66 608.8 633.25 546.63 627.09 504.67 564.22 516.55 570.15 544.86"/><path class="cls-15" d="M783.55,672c-8.89-10.94-17.86-16.3-24.88-19.15-14.93-6.06-35.72-6.63-35.72-6.63h0L671.57,756.83,663,860.07c-17.46,6.65-25,20.22-21.93,27.74,1.57,3.87,5.7,5.67,16.31,8.56,16.76,4.57,25.15,6.85,29.41,6.11,7.57-1.32,10.14-5.7,34-39.11,16.8-23.47,21.79-30.17,29.81-43.92,0,0,6.06-10.39,10.74-20,5.48-11.23,13.21-34.92,18.07-69.14A417.59,417.59,0,0,0,783.55,672Z" transform="translate(-18.18)"/><path class="cls-16" d="M670.68,578.39l33.83,33.51a920.75,920.75,0,0,1-4.79,165.33A920.51,920.51,0,0,1,677.58,895.8c0,.81-.3,11.89-9.11,17.13a18.25,18.25,0,0,1-10.22,2.44c-3.52.35-8.64.8-14.82,1.1-33.32,1.58-57.15-3.24-94.21-11-53.84-11.29-103.69-21.92-103.69-21.92s-2.37-5.33,5.33-16,47.4-77.82,51-87.2S528.48,720.6,532,705.79s13-64,14.22-73.48-2.37-20.74.59-24.29A117.56,117.56,0,0,1,564,591.43a95.88,95.88,0,0,0,13.62-13l10.08,13,3,15.41L602,631.13l22.51-11.27,29.63-25.47Z" transform="translate(-18.18)"/><path class="cls-8" d="M704.51,611.9l12.89,10.81a149.33,149.33,0,0,1,10.81,37.77,152,152,0,0,1,1.19,32.89,155.91,155.91,0,0,1-4.13,26.11l-12.46,22.15a113.2,113.2,0,0,1-32.58,1.8c-18.22-1.66-26.46-7-28.45-8.29a46.85,46.85,0,0,1-6.52-5.33c1.62-6.94,4.15-17.24,7.71-29.63,6.9-24,10.35-36,17.78-49.18a127.86,127.86,0,0,1,26.66-32.74Z" transform="translate(-18.18)"/><path class="cls-5" d="M546.52,507.63,367,484.66l12.3-127.43L558.51,374Q552.51,440.8,546.52,507.63Z" transform="translate(-18.18)"/><path class="cls-12" d="M651.78,735.14l-16,30.8-153.47,32.6,11.85,20.14q8,.17,16,.3,88,1.38,172.42-2.68,13.62-37,27.25-74.12Z" transform="translate(-18.18)"/><path class="cls-17" d="M373.85,817.43H300.6a28,28,0,0,1,28-28h17.18a28,28,0,0,1,28,28Z" transform="translate(-18.18)"/><path class="cls-13" d="M480.82,820.82h-21a11,11,0,0,1-10.95-11v-.62a11,11,0,0,1,10.95-11h21a11,11,0,0,1,11,11v.62A11,11,0,0,1,480.82,820.82Z" transform="translate(-18.18)"/><path class="cls-18" d="M512.51,817.43H201.6a3,3,0,0,1-3-3v-1.92a3,3,0,0,1,3-3H512.51a3,3,0,0,1,3,3v1.92A3,3,0,0,1,512.51,817.43Z" transform="translate(-18.18)"/><path class="cls-19" d="M389.66,470.76c-1.48,2,2.59,7,5.15,11,4.06,6.27,8.47,16.29,9,32.25h0c8,26.06,20.1,72.32,39.11,161.76,13.12,27,16.61,37.86,16,41.32a3.3,3.3,0,0,0,.38,2.53c1.65,2.19,7.44.72,10.88-.81a24,24,0,0,0,7.69-5.68c7.62-9.2-8.09-44.5-16.61-66.29-8-20.51-12.84-37.49-22.36-71.5-4.84-17.26-10.3-34.36-14.66-51.74C418,498.42,414,477.8,400,471.87,397.54,470.84,391.15,468.71,389.66,470.76Z" transform="translate(-18.18)"/><path class="cls-18" d="M462.32,721.41l-258.21.53a13.14,13.14,0,0,1-11.89-7.48,997.49,997.49,0,0,1-75-220,13.15,13.15,0,0,1,12.42-15.92l262.27-8.58a13.14,13.14,0,0,1,13.45,11.28,731.75,731.75,0,0,0,68.67,221.2A13.15,13.15,0,0,1,462.32,721.41Z" transform="translate(-18.18)"/><path class="cls-20" d="M297.59,813.21l-70.21.3q21.1-78,42.21-156l61.33,6.22Q314.27,738.46,297.59,813.21Z" transform="translate(-18.18)"/><path class="cls-19" d="M331,663.48,318,721.7h17.33Z" transform="translate(-18.18)"/><path class="cls-15" d="M545,984.27H653.18a19.88,19.88,0,0,0,19.89-19.89v-1.12a19.88,19.88,0,0,0-19.89-19.88H545a19.88,19.88,0,0,0-19.89,19.88v1.12A19.88,19.88,0,0,0,545,984.27Z" transform="translate(-18.18)"/><rect class="cls-21" x="188.57" y="841.37" width="16.88" height="18.22"/><rect class="cls-21" x="161.91" y="841.37" width="16.88" height="18.22"/><rect class="cls-22" x="161.91" y="858.41" width="167.98" height="141.61"/><rect class="cls-21" x="63.25" y="841.37" width="16.88" height="18.22"/><rect class="cls-21" x="285.89" y="841.37" width="16.88" height="18.22"/><rect class="cls-21" x="468.54" y="841.37" width="16.88" height="18.22"/><rect class="cls-21" x="587.63" y="841.37" width="16.88" height="18.22"/><path class="cls-23" d="M648.6,844.18H65.51a13,13,0,0,1-13-13v-.74a13,13,0,0,1,13-13H648.6a13,13,0,0,1,13,13v.74A13,13,0,0,1,648.6,844.18Z" transform="translate(-18.18)"/><path class="cls-23" d="M180.08,1000,59.5,999.13q-.3-70.82-.59-141.61l120.87.89Q179.93,929.21,180.08,1000Z" transform="translate(-18.18)"/><rect class="cls-22" x="457.27" y="857.96" width="167.98" height="141.61"/><path class="cls-24" d="M482.49,384.94c-7.11.39-18.15-36.29-13.33-71.4,3-22,10.37-29.49,12.73-31.7,11.67-10.89,30.6-13.33,34.37-8,1.93,2.72-1.18,6,.3,13.62,1.13,5.9,3.93,8.93,5.33,11.55,7.65,14.3-16.94,33.8-33.48,75.25C485.63,381.25,484.68,384.83,482.49,384.94Z" transform="translate(-18.18)"/><path class="cls-11" d="M523.86,399.38,393.34,385.5a3.54,3.54,0,0,1-3.14-3.88h0a3.54,3.54,0,0,1,3.88-3.14l130.51,13.88a3.52,3.52,0,0,1,3.14,3.88h0A3.51,3.51,0,0,1,523.86,399.38Z" transform="translate(-18.18)"/><path class="cls-11" d="M444.93,408.53l-53.44-5.69a3.54,3.54,0,0,1-3.14-3.88h0a3.55,3.55,0,0,1,3.88-3.14l53.45,5.69a3.53,3.53,0,0,1,3.14,3.87h0A3.54,3.54,0,0,1,444.93,408.53Z" transform="translate(-18.18)"/><path class="cls-11" d="M520.09,434.77l-61.75-6.57a3.54,3.54,0,0,1-3.14-3.88h0a3.53,3.53,0,0,1,3.88-3.14l61.75,6.57a3.52,3.52,0,0,1,3.14,3.88h0A3.52,3.52,0,0,1,520.09,434.77Z" transform="translate(-18.18)"/><path class="cls-11" d="M518.83,446.66,388.32,432.78a3.54,3.54,0,0,1-3.14-3.88h0a3.54,3.54,0,0,1,3.88-3.14l130.51,13.88a3.55,3.55,0,0,1,3.14,3.88h0A3.51,3.51,0,0,1,518.83,446.66Z" transform="translate(-18.18)"/><path class="cls-11" d="M517.18,462.21,386.66,448.33a3.54,3.54,0,0,1-3.14-3.88h0a3.55,3.55,0,0,1,3.88-3.14l130.51,13.88a3.54,3.54,0,0,1,3.15,3.88h0A3.55,3.55,0,0,1,517.18,462.21Z" transform="translate(-18.18)"/><path class="cls-11" d="M474.3,473.1,385,463.61a3.54,3.54,0,0,1-3.14-3.88h0a3.54,3.54,0,0,1,3.88-3.14L475,466.08a3.52,3.52,0,0,1,3.14,3.88h0A3.52,3.52,0,0,1,474.3,473.1Z" transform="translate(-18.18)"/><path class="cls-23" d="M475.45,999.57l-10.17-.89q0-70.8-.06-141.61l10.2.89Z" transform="translate(-18.18)"/><path class="cls-25" d="M804,982.69" transform="translate(-18.18)"/><path class="cls-8" d="M589.88,572.54a45.91,45.91,0,0,0-7.63,1.31,47.06,47.06,0,0,0-6.55,2.22A221.22,221.22,0,0,0,584.77,608c5,14.27,15.41,30.86,15.41,30.86s3.85,1.78,13.63-3.84S650,611.91,650,611.91q12.48-16.06,24.94-32.15a66.44,66.44,0,0,0-20.76-6.35c.26,2.68.53,5.34.78,8a17.34,17.34,0,0,1,.66,5.66,20.76,20.76,0,0,1-1.48,6.34c-1.81,4.37-14.3,14.42-33.48,24.43L605.8,627s-1.77-3.7-4-8.59a155.91,155.91,0,0,1-6.41-15.69A118,118,0,0,1,590.24,577C590.07,575.13,590,573.62,589.88,572.54Z" transform="translate(-18.18)"/><path class="cls-5" d="M830.89,298.47l-179,26.89q-11.46-63-22.93-126L806,166.6Q818.42,232.53,830.89,298.47Z" transform="translate(-18.18)"/><path class="cls-12" d="M720.77,470c0,16.54-20.77,53.66-59.55,68.87-13.54,5.32-11.87,1.14-44.44,9.78-31.7,8.42-31.93,12.54-45.33,12.89-29.19.78-51.26-13.19-61.33-19.56-12.21-7.72-29.84-18.88-40-41.33-2.35-5.2-9.07-20.66-6.67-40.44,1.09-9,2.11-17.3,8-25.34,4.24-5.77,8.11-7.46,10.23-14.22.65-2.07,1.05-4.36.89-16-.1-7.09-.15-10.65-.45-15.1-.43-6.34-2-62.38,31.55-88.89,21-16.56,46.45-15.3,68.44-14.22,13.78.69,46.5,2.3,76,25.78,21.27,16.93,29.69,36.33,42.65,66.21,3,6.84,9.32,30.15,10.67,45.33a77.65,77.65,0,0,0,2.67,15.56c1.67,5.9,3,7.75,4.44,12.89A72.85,72.85,0,0,1,720.77,470Z" transform="translate(-18.18)"/><path class="cls-11" d="M771.06,295.51c-3-8.78-7.82-22.89-18.07-37-21.06-29.06-51.5-39.59-75-47.7-24.7-8.54-45-9.86-64.29-11.26-18.41-1.34-29.79-.26-36.93.81-7.81,1.17-16.93,3.26-18.22,3.56a166.08,166.08,0,0,0-16.84,4.52c-11.55,3.92-19.92,8.77-22.51,10.66-20.7,15.17-34.76,35.13-37.62,44.44a59.36,59.36,0,0,1-5,13.63c-1.6,3-2.29,3.58-2.07,4.44a2,2,0,0,0,1.18,1.21l-.88.13A230.55,230.55,0,0,0,629,338.45L610.8,318.9,649,310.68l.07-.05c.64.35,1.3.74,2,1.16,21.81,13.29,31.28,34.34,39.69,53,16.24,36.07,3.54,71.61,16.6,76.44.49.18,6,2.14,8.59-.3,2.8-2.65-1-7.43,1.19-12.74,3-7.3,14.87-9.25,18.06-9.78,8.14-1.33,10.54,1.06,15.11-1.18,6.4-3.15,8.41-11.12,9.48-15.11,9.19-34.29,18-32.22,19.86-56.29C781.21,325.21,775.79,309.32,771.06,295.51Z" transform="translate(-18.18)"/><path class="cls-26" d="M623.14,345.23a14,14,0,0,1-5.2,3.77c-3.59,1.45-4.93.07-11.46.17s-9.27,1.57-13.86-.26a17.16,17.16,0,0,1-2.54-1.28,20,20,0,0,1,9.09-8.28,20.39,20.39,0,0,1,15.2-.33A21.1,21.1,0,0,1,623.14,345.23Z" transform="translate(-18.18)"/><ellipse class="cls-27" cx="492.4" cy="388.63" rx="17.92" ry="22.08"/><ellipse class="cls-28" cx="490.54" cy="396.44" rx="10.19" ry="14.1"/><ellipse class="cls-27" cx="610.94" cy="392.61" rx="23.47" ry="19.05" transform="translate(141.14 961.31) rotate(-84.27)"/><ellipse class="cls-28" cx="607.83" cy="400.5" rx="15.07" ry="10.45" transform="translate(163.98 990.97) rotate(-87.59)"/><path class="cls-29" d="M543.88,446.25a4.31,4.31,0,0,1-3.46-2.94,7.65,7.65,0,0,0-4.13-4.86,8.09,8.09,0,0,0-9,2.24,4.45,4.45,0,0,1-4.64,1.22l-.69-.23a4.42,4.42,0,0,1-2.54-6.32c4-7.07,12.43-10.43,19.38-8,5.62,2,9.72,7.58,10.28,14.06a4.47,4.47,0,0,1-5.15,4.82Z" transform="translate(-18.18)"/><path class="cls-30" d="M516.77,484.7c-.35,1.33-2.88,11.78,8.81,21.34a49.93,49.93,0,0,0,32.56,10.52c16.11-.87,28.61-11,27.48-24.41" transform="translate(-18.18)"/><path class="cls-31" d="M580.09,493.38c1.08,2.23,1.81,5.13-.51,7.05-1.53,1.27-4.79,2.44-27.7-.07-22.24-2.44-26-4.28-28.2-6.1a8.85,8.85,0,0,1-3.46-7.43" transform="translate(-18.18)"/><path class="cls-26" d="M533.69,349a14.21,14.21,0,0,1-5.82,2.76c-3.79.77-4.86-.84-11.3-1.94s-9.41-.16-13.58-2.81a15.23,15.23,0,0,1-2.26-1.73,20,20,0,0,1,10.45-6.47,20.33,20.33,0,0,1,15,2.47A21.16,21.16,0,0,1,533.69,349Z" transform="translate(-18.18)"/><polygon class="cls-12" points="685.26 442.55 694.77 442.55 697.02 474.09 683.25 466.99 685.26 442.55"/><path class="cls-12" d="M713,439.2c2.63-7.66,4.7-13.69,10.22-17.78,7.47-5.52,16.7-4.07,20-3.55,2.86.44,11.08,1.85,17.33,8.66,8.33,9.08,8.91,23.14,4,33.55-6,12.64-18.42,16.52-21.32,17.34A38.86,38.86,0,0,1,718.53,475c-2.75-1.32-4.57-2.2-6.22-4.22-4.5-5.54-3.12-13.81-1.77-21.78A62.85,62.85,0,0,1,713,439.2Z" transform="translate(-18.18)"/><path class="cls-29" d="M721,439.15c-1.3-2.46,3-7.83,7.33-10.89,1.46-1,10.59-7.41,20.89-3.11s12.24,15.34,12.44,16.67c2,12.32-7.65,20.7-8.67,21.55a28.61,28.61,0,0,1-18.21,5.79,33.38,33.38,0,0,1-10.86-2.57,1,1,0,0,1-.69-.32c-.92-1.23,3.51-4.69,5.78-9.55s2.82-11.88-.45-14.89C725.85,439.31,722.08,441.16,721,439.15Z" transform="translate(-18.18)"/><ellipse class="cls-32" cx="589.7" cy="400.32" rx="52.18" ry="61.02"/><path class="cls-26" d="M482.41,321.08c-29.7,0-53.77,28.59-53.77,63.86s24.07,63.87,53.77,63.87,53.77-28.59,53.77-63.87S512.11,321.08,482.41,321.08Zm0,123.78C454.55,444.86,432,418,432,384.94S454.55,325,482.41,325s50.43,26.82,50.43,59.91S510.26,444.86,482.41,444.86Z" transform="translate(-18.18)"/><path class="cls-26" d="M554.84,401a19,19,0,0,0-20.37-1.85q.13-2.7.3-5.4a16.35,16.35,0,0,1,20.51,1.71C555.14,397.29,555,399.13,554.84,401Z" transform="translate(-18.18)"/><path class="cls-26" d="M607.87,336.44c-29.69,0-53.76,28.6-53.76,63.87s24.07,63.87,53.76,63.87,53.77-28.6,53.77-63.87S637.57,336.44,607.87,336.44Zm0,123.78c-27.85,0-50.43-26.82-50.43-59.91S580,340.4,607.87,340.4s50.44,26.82,50.44,59.91S635.73,460.22,607.87,460.22Z" transform="translate(-18.18)"/><path class="cls-26" d="M659.57,405.65l72.88-12c0-2.41.09-4.84.15-7.25l-72.74,4.44Q659.72,398.25,659.57,405.65Z" transform="translate(-18.18)"/><ellipse class="cls-32" cx="464.12" cy="384.94" rx="52.18" ry="61.02"/><path class="cls-33" d="M325.15,798.27l-5,4.17a2.59,2.59,0,0,1-3.65-.33l-.1-.1a2.6,2.6,0,0,1,.32-3.66l5-4.16a2.59,2.59,0,0,1,3.65.32l.1.1A2.6,2.6,0,0,1,325.15,798.27Z" transform="translate(-18.18)"/><path class="cls-5" d="M290,82.3" transform="translate(-18.18)"/><path class="cls-11" d="M556.49,84.46H425.24a3.53,3.53,0,0,1-3.53-3.53h0a3.53,3.53,0,0,1,3.53-3.52H556.49A3.53,3.53,0,0,1,560,80.93h0A3.53,3.53,0,0,1,556.49,84.46Z" transform="translate(-18.18)"/><path class="cls-11" d="M479,101.9H425.24a3.53,3.53,0,0,1-3.53-3.53h0a3.54,3.54,0,0,1,3.53-3.53H479a3.53,3.53,0,0,1,3.52,3.53h0A3.53,3.53,0,0,1,479,101.9Z" transform="translate(-18.18)"/><path class="cls-11" d="M556.49,120H494.4a3.53,3.53,0,0,1-3.53-3.53h0A3.53,3.53,0,0,1,494.4,113h62.09a3.53,3.53,0,0,1,3.52,3.52h0A3.52,3.52,0,0,1,556.49,120Z" transform="translate(-18.18)"/><path class="cls-11" d="M556.49,132H425.24a3.53,3.53,0,0,1-3.53-3.53h0a3.53,3.53,0,0,1,3.53-3.52H556.49a3.53,3.53,0,0,1,3.52,3.52h0A3.53,3.53,0,0,1,556.49,132Z" transform="translate(-18.18)"/><path class="cls-11" d="M556.49,147.63H425.24a3.53,3.53,0,0,1-3.53-3.53h0a3.53,3.53,0,0,1,3.53-3.52H556.49A3.53,3.53,0,0,1,560,144.1h0A3.52,3.52,0,0,1,556.49,147.63Z" transform="translate(-18.18)"/><path class="cls-11" d="M515,163H425.24a3.53,3.53,0,0,1-3.53-3.53h0a3.54,3.54,0,0,1,3.53-3.53H515a3.53,3.53,0,0,1,3.52,3.53h0A3.53,3.53,0,0,1,515,163Z" transform="translate(-18.18)"/><path class="cls-11" d="M810.12,279.73,664.34,305.29a3.53,3.53,0,0,0-2.87,4.09l.3,1.7a3.52,3.52,0,0,0,4.08,2.86l145.79-25.56a3.52,3.52,0,0,0,2.86-4.08l-.3-1.7A3.53,3.53,0,0,0,810.12,279.73Z" transform="translate(-18.18)"/><path class="cls-11" d="M720.79,273.38l-60.18,10.55a3.53,3.53,0,0,0-2.87,4.09l.3,1.69a3.53,3.53,0,0,0,4.09,2.87L722.31,282a3.52,3.52,0,0,0,2.86-4.08l-.3-1.7A3.54,3.54,0,0,0,720.79,273.38Z" transform="translate(-18.18)"/><path class="cls-11" d="M802.48,236.12l-69.41,12.17a3.52,3.52,0,0,0-2.87,4.08l.3,1.7a3.52,3.52,0,0,0,4.08,2.86L804,244.76a3.52,3.52,0,0,0,2.86-4.08l-.3-1.7A3.53,3.53,0,0,0,802.48,236.12Z" transform="translate(-18.18)"/><path class="cls-11" d="M799.9,221.47,654.12,247a3.52,3.52,0,0,0-2.86,4.08l.3,1.7a3.52,3.52,0,0,0,4.08,2.86l145.78-25.56a3.52,3.52,0,0,0,2.86-4.08l-.29-1.7A3.52,3.52,0,0,0,799.9,221.47Z" transform="translate(-18.18)"/><path class="cls-11" d="M796.55,202.31,650.77,227.87A3.52,3.52,0,0,0,647.9,232l.3,1.7a3.52,3.52,0,0,0,4.08,2.86L798.07,211a3.52,3.52,0,0,0,2.86-4.08l-.3-1.7A3.52,3.52,0,0,0,796.55,202.31Z" transform="translate(-18.18)"/><path class="cls-11" d="M747.43,191.5,647.46,209a3.52,3.52,0,0,0-2.86,4.08l.3,1.7a3.52,3.52,0,0,0,4.08,2.86l100-17.52a3.52,3.52,0,0,0,2.87-4.08l-.3-1.7A3.53,3.53,0,0,0,747.43,191.5Z" transform="translate(-18.18)"/><path class="cls-1" d="M126,109l174.14,48.87Q286.9,206.44,273.63,255l-174.55-44Q112.54,160,126,109Z" transform="translate(-18.18)"/><path class="cls-2" d="M125.18,191.31,252,225.23a3.53,3.53,0,0,1,2.5,4.32h0a3.53,3.53,0,0,1-4.32,2.5L123.37,198.13a3.52,3.52,0,0,1-2.51-4.31h0A3.52,3.52,0,0,1,125.18,191.31Z" transform="translate(-18.18)"/><path class="cls-2" d="M204.57,194.5l51.91,13.89a3.53,3.53,0,0,1,2.5,4.32h0a3.53,3.53,0,0,1-4.32,2.5l-51.91-13.89a3.52,3.52,0,0,1-2.5-4.31h0A3.52,3.52,0,0,1,204.57,194.5Z" transform="translate(-18.18)"/><path class="cls-2" d="M134.37,156.93l60,16a3.53,3.53,0,0,1,2.51,4.32h0a3.53,3.53,0,0,1-4.32,2.5l-60-16.05a3.53,3.53,0,0,1-2.5-4.32h0A3.52,3.52,0,0,1,134.37,156.93Z" transform="translate(-18.18)"/><path class="cls-2" d="M137.47,145.38,264.26,179.3a3.54,3.54,0,0,1,2.51,4.32h0a3.53,3.53,0,0,1-4.32,2.5L135.65,152.2a3.53,3.53,0,0,1-2.5-4.32h0A3.52,3.52,0,0,1,137.47,145.38Z" transform="translate(-18.18)"/><path class="cls-2" d="M141.51,130.28,268.3,164.19a3.53,3.53,0,0,1,2.5,4.32h0a3.52,3.52,0,0,1-4.31,2.5L139.69,137.1a3.53,3.53,0,0,1-2.5-4.32h0A3.53,3.53,0,0,1,141.51,130.28Z" transform="translate(-18.18)"/><path class="cls-1" d="M221.83,286.32l-178.52,30Q30.74,253.57,18.18,190.8l176.41-35.9Z" transform="translate(-18.18)"/><path class="cls-2" d="M179.51,182.87,50.69,208.06a3.54,3.54,0,0,1-4.14-2.79h0a3.53,3.53,0,0,1,2.79-4.15l128.81-25.18a3.52,3.52,0,0,1,4.14,2.78h0A3.52,3.52,0,0,1,179.51,182.87Z" transform="translate(-18.18)"/><path class="cls-2" d="M106.78,214.86,54,225.17a3.53,3.53,0,0,1-4.15-2.78h0a3.54,3.54,0,0,1,2.79-4.15l52.74-10.31a3.53,3.53,0,0,1,4.15,2.79h0A3.54,3.54,0,0,1,106.78,214.86Z" transform="translate(-18.18)"/><path class="cls-2" d="M186.33,217.8l-60.94,11.92a3.54,3.54,0,0,1-4.14-2.79h0a3.53,3.53,0,0,1,2.79-4.15L185,210.87a3.52,3.52,0,0,1,4.14,2.79h0A3.52,3.52,0,0,1,186.33,217.8Z" transform="translate(-18.18)"/><path class="cls-2" d="M188.63,229.53,59.82,254.72a3.55,3.55,0,0,1-4.15-2.79h0a3.54,3.54,0,0,1,2.79-4.14L187.27,222.6a3.54,3.54,0,0,1,4.15,2.79h0A3.53,3.53,0,0,1,188.63,229.53Z" transform="translate(-18.18)"/><path class="cls-2" d="M191.63,244.88,62.82,270.06a3.54,3.54,0,0,1-4.15-2.78h0a3.54,3.54,0,0,1,2.79-4.15l128.82-25.19a3.54,3.54,0,0,1,4.14,2.79h0A3.53,3.53,0,0,1,191.63,244.88Z" transform="translate(-18.18)"/><path class="cls-5" d="M1047.45,319.7" transform="translate(-18.18)"/><path class="cls-34" d="M976.47,169.46q.6,90.45,1.19,180.88-50.37.69-100.72,1.37l-6-179.9Z" transform="translate(-18.18)"/><path class="cls-35" d="M928.55,297l-31.32-1.76c-1.13-.06-2-1.7-2-3.64h0c0-1.95,1-3.48,2.1-3.42L928.62,290c1.13.06,2,1.69,2,3.64h0C930.62,295.58,929.68,297.11,928.55,297Z" transform="translate(-18.18)"/><path class="cls-35" d="M950,277.59l-53.72-1.48a3.53,3.53,0,0,1-3.44-3.62h0a3.54,3.54,0,0,1,3.62-3.43l53.72,1.48a3.53,3.53,0,0,1,3.44,3.62h0A3.52,3.52,0,0,1,950,277.59Z" transform="translate(-18.18)"/><path class="cls-35" d="M952.37,261.25l-53.72-1.47a3.53,3.53,0,0,1-3.43-3.63h0a3.52,3.52,0,0,1,3.62-3.43l53.71,1.48a3.53,3.53,0,0,1,3.44,3.62h0A3.52,3.52,0,0,1,952.37,261.25Z" transform="translate(-18.18)"/><path class="cls-35" d="M951.05,198.65l-53.72-1.48a3.54,3.54,0,0,1-3.43-3.62h0a3.53,3.53,0,0,1,3.62-3.44l53.72,1.48a3.54,3.54,0,0,1,3.43,3.62h0A3.52,3.52,0,0,1,951.05,198.65Z" transform="translate(-18.18)"/><path class="cls-35" d="M963.24,240.17l-65.19-1.33c-2.36,0-4.22-1.66-4.15-3.61h0c.06-1.94,2-3.49,4.4-3.44l65.18,1.33c2.36,0,4.23,1.66,4.16,3.61h0C967.58,238.69,965.6,240.23,963.24,240.17Z" transform="translate(-18.18)"/></svg>