<?xml version="1.0" encoding="utf-8"?>
<!-- Generator: Adobe Illustrator 24.1.1, SVG Export Plug-In . SVG Version: 6.00 Build 0)  -->
<svg version="1.1" id="Layer_1" xmlns="http://www.w3.org/2000/svg" xmlns:xlink="http://www.w3.org/1999/xlink" x="0px" y="0px"
	 viewBox="0 0 1000 1000" style="enable-background:new 0 0 1000 1000;" xml:space="preserve">
<style type="text/css">
	.st0{opacity:0.6;fill:#505050;enable-background:new    ;}
	.st1{opacity:0.6;fill:#323232;enable-background:new    ;}
	.st2{fill:#1E1E1E;}
	.st3{fill:#2D2D2D;}
	.st4{fill:#505050;}
	.st5{fill:#787878;}
	.st6{fill:#FFCC66;}
	.st7{fill:#1A75FF;}
	.st8{fill:#993D00;}
	.st9{fill:#FFD480;}
	.st10{fill:#323232;}
	.st11{fill:#FCBEAE;}
	.st12{fill:#FAB4AA;}
	.st13{fill:#FCB09C;}
	.st14{fill:#FF6600;}
	.st15{fill:#1A5AFF;}
	.st16{fill:#152340;}
	.st17{fill:#919191;}
	.st18{fill:#737373;}
	.st19{fill:#A6A6A6;}
	.st20{fill:#2D3954;}
	.st21{fill:#F5BE8C;}
	.st22{fill:#E68C46;}
	.st23{fill:#555555;}
	.st24{fill:#B32400;}
	.st25{fill:#2B2A29;}
	.st26{fill:#F4F9FF;}
	.st27{fill:#434242;}
	.st28{fill:#FCA28B;}
	.st29{fill:#AB2421;}
	.st30{fill:#FFFFFF;}
	.st31{opacity:0.3;fill:#333231;enable-background:new    ;}
	.st32{fill:#A1D8FF;}
	.st33{opacity:0.8;fill:#505050;enable-background:new    ;}
</style>
<g>
	<path class="st0" d="M352.4,468.1c-60.2-4-120.4-8.1-180.6-12.1c1.5-42.6,3.1-85.3,4.6-127.9c60,2,120,3.9,179.9,5.9
		C355,378.7,353.7,423.4,352.4,468.1z"/>
	<path class="st1" d="M335.2,357.7l-131.1-5.3c-1.9-0.1-3.5-1.7-3.4-3.7l0,0c0.1-1.9,1.7-3.5,3.7-3.4l131.1,5.3
		c1.9,0.1,3.5,1.7,3.4,3.7l0,0C338.8,356.3,337.1,357.8,335.2,357.7z"/>
	<path class="st1" d="M257,372l-53.7-2.2c-1.9-0.1-3.5-1.7-3.4-3.7l0,0c0.1-1.9,1.7-3.5,3.7-3.4l53.7,2.2c1.9,0.1,3.5,1.7,3.4,3.7
		l0,0C260.6,370.6,259,372.1,257,372z"/>
	<path class="st1" d="M333.8,393.3l-62-2.5c-1.9-0.1-3.5-1.7-3.4-3.7l0,0c0.1-1.9,1.7-3.5,3.7-3.4l62,2.5c1.9,0.1,3.5,1.7,3.4,3.7
		l0,0C337.3,391.8,335.7,393.3,333.8,393.3z"/>
	<path class="st1" d="M333.3,405.2l-131.1-5.3c-1.9-0.1-3.5-1.7-3.4-3.7l0,0c0.1-1.9,1.7-3.5,3.7-3.4l131.1,5.3
		c1.9,0.1,3.5,1.7,3.4,3.7l0,0C336.9,403.8,335.2,405.3,333.3,405.2z"/>
	<path class="st1" d="M332.6,420.8l-131.1-5.3c-1.9-0.1-3.5-1.7-3.4-3.7l0,0c0.1-1.9,1.7-3.5,3.7-3.4l131.1,5.3
		c1.9,0.1,3.5,1.7,3.4,3.7l0,0C336.2,419.4,334.6,420.9,332.6,420.8z"/>
</g>
<rect x="844.8" y="0.5" class="st2" width="151.5" height="998.7"/>
<rect x="352.8" y="0.5" class="st3" width="501.1" height="998.7"/>
<path class="st4" d="M816.8,700.5c-59.2-11.8-118.3-23.7-177.5-35.5c7.1-42.1,14.1-84.2,21.2-126.3c59.2,9.7,118.4,19.5,177.6,29.2
	C831,612.1,823.9,656.3,816.8,700.5z"/>
<rect x="337.2" y="0.2" class="st5" width="18.3" height="999.6"/>
<path class="st4" d="M578.2,194.1c-60.3-1.6-120.6-3.2-181-4.8c-0.2-42.7-0.4-85.3-0.6-128c60-0.5,120-0.9,180-1.4
	C577.2,104.6,577.7,149.4,578.2,194.1z"/>
<rect x="597.4" class="st4" width="2" height="999.6"/>
<rect x="844.8" y="0.5" class="st5" width="18.3" height="998.7"/>
<rect x="992.5" y="0.5" class="st5" width="7.5" height="998.7"/>
<path class="st6" d="M447.3,882.4c-19.4,13.6-35.8,22.4-47.5,28.1c-10.6,5.2-20,9-28.4,19.1c-6.9,8.2-9.7,16.4-12.4,24.9
	c-3.2,9.6-6.9,25.2-6,45.3c21.2-0.3,42.4-0.6,63.5-1c-0.6-5.9-1.8-23.3,8.9-40.8c14.5-23.8,39.3-29.2,43.6-30
	c22.3-5.8,44.6-11.7,66.9-17.5l13.4-5C515.3,897.8,481.3,890.1,447.3,882.4z"/>
<rect x="577.6" y="578.4" class="st7" width="93" height="41.2"/>
<path class="st8" d="M546.5,995.5h115.9c5.9,0,10.7-4.8,10.7-10.7v-0.6c0-5.9-4.8-10.7-10.7-10.7H546.5c-5.9,0-10.7,4.8-10.7,10.7
	v0.6C535.9,990.8,540.6,995.5,546.5,995.5z"/>
<path class="st8" d="M769.2,776.8c-1.8,14.6-3.7,29.1-5.5,43.7c0,0-8,37.6-14.2,52.7c-6.2,15.1-19.6,39.7-19.6,39.7l-21,32.6
	c19.5,4.1,33.6,9.6,38.2,14.2c1.1,1.1,3.5,3.5,4,7.1c0.1,0.7,0.6,3.9-1.3,6.7c-1.9,2.8-5,3.5-9.3,4.4c-4.1,0.9-7.3,0.9-7.6,0.9
	c-9.5,0-8.2,1.1-24,1.3c-8,0.1-18.4,0-30.5-0.9l-17.2,16.3L647,952.9c-0.2-6.4,0.2-15.6,3.7-25.8c9.5-27.4,34.7-41.2,43.8-46.8
	C716.7,866.5,744.8,838.7,769.2,776.8z"/>
<path class="st9" d="M469.8,999.1c17.6-18.6,35.2-37.1,52.8-55.7c40.3,0,80.6,0,120.9,0c2.7-0.7,12.7-3.6,19.5-13.6
	c8.8-12.9,4.8-27,4.2-28.9c-46.7,0.7-93.3,1.5-140,2.2c-7.8,0.3-17.1,1.4-27.1,4c-24.8,6.5-42.3,19.2-52.4,28
	c-6.3,3.6-15.3,10-23.1,20.4c-4,5.3-10.6,14.4-12.9,28c-1.1,6.4-0.8,11.9-0.4,15.6C430.7,999.1,450.2,999.1,469.8,999.1z"/>
<path class="st10" d="M811.4,595l-128.9-24.5c-1.9-0.4-3.2-2.2-2.8-4.1l0,0c0.4-1.9,2.2-3.2,4.1-2.8L812.7,588
	c1.9,0.4,3.2,2.2,2.8,4.1l0,0C815.2,594.1,813.3,595.3,811.4,595z"/>
<path class="st10" d="M732,597.6l-52.8-10.1c-1.9-0.4-3.2-2.2-2.8-4.1l0,0c0.4-1.9,2.2-3.2,4.1-2.8l52.8,10.1
	c1.9,0.4,3.2,2.2,2.8,4.1l0,0C735.8,596.7,733.9,597.9,732,597.6z"/>
<path class="st10" d="M804.7,629.9l-61-11.6c-1.9-0.4-3.2-2.2-2.8-4.1l0,0c0.4-1.9,2.2-3.2,4.1-2.8l61,11.6c1.9,0.4,3.2,2.2,2.8,4.1
	l0,0C808.5,629,806.7,630.3,804.7,629.9z"/>
<path class="st10" d="M802.5,641.7l-128.9-24.5c-1.9-0.4-3.2-2.2-2.8-4.1l0,0c0.4-1.9,2.2-3.2,4.1-2.8l128.9,24.5
	c1.9,0.4,3.2,2.2,2.8,4.1l0,0C806.3,640.8,804.4,642,802.5,641.7z"/>
<path class="st10" d="M799.6,657l-128.9-24.5c-1.9-0.4-3.2-2.2-2.8-4.1l0,0c0.4-1.9,2.2-3.2,4.1-2.8l128.9,24.5
	c1.9,0.4,3.2,2.2,2.8,4.1l0,0C803.3,656.1,801.5,657.4,799.6,657z"/>
<path class="st10" d="M756,664.3l-88.2-16.8c-1.9-0.4-3.2-2.2-2.8-4.1l0,0c0.4-1.9,2.2-3.2,4.1-2.8l88.2,16.8
	c1.9,0.4,3.2,2.2,2.8,4.1l0,0C759.7,663.5,757.9,664.7,756,664.3z"/>
<path class="st7" d="M546.9,608c-8.5,9.6-18.7,23.6-26.1,42.4c-2.7,6.8-4.6,13.3-5.9,19.3c8.9,2.7,17.8,5.5,26.7,8.2l10.7-34.9
	L546.9,608z"/>
<path class="st11" d="M517.5,670.1c-10,23.1-19.9,46.1-29.9,69.2c-28.4,23.4-56.9,46.8-85.3,70.3c18,0,35.9,0,53.8,0
	c4.5-3.2,9.1-6.4,13.6-9.6c20.6-14.7,40.4-29.7,59.3-44.6c5.5-28.6,11.1-57.3,16.6-85.9C536.3,669.6,526.9,669.9,517.5,670.1z"/>
<path class="st12" d="M412.8,820.8h-21c-6,0-11-4.9-11-11v-0.6c0-6,4.9-11,11-11h21c6,0,11,4.9,11,11v0.6
	C423.7,815.9,418.8,820.8,412.8,820.8z"/>
<polygon class="st13" points="588.3,544.9 591,592.4 585.7,604.5 596.3,638.9 643.7,627.5 658.8,608.8 651.4,546.6 645.3,504.7 
	582.4,516.5 "/>
<path class="st14" d="M783.6,672c-8.9-10.9-17.9-16.3-24.9-19.1c-14.9-6.1-35.7-6.6-35.7-6.6l0,0l-51.4,110.6L663,860.1
	c-17.5,6.6-25,20.2-21.9,27.7c1.6,3.9,5.7,5.7,16.3,8.6c16.8,4.6,25.2,6.8,29.4,6.1c7.6-1.3,10.1-5.7,34-39.1
	c16.8-23.5,21.8-30.2,29.8-43.9c0,0,6.1-10.4,10.7-19.9c5.5-11.2,13.2-34.9,18.1-69.1C781.5,715.4,783.5,695.6,783.6,672z"/>
<path class="st15" d="M670.7,578.4l33.8,33.5c2.9,47.1,2.7,103-4.8,165.3c-5.3,44-13.2,83.7-22.1,118.6c0,0.8-0.3,11.9-9.1,17.1
	c-4.1,2.4-8.2,2.5-10.2,2.4c-3.5,0.4-8.6,0.8-14.8,1.1c-33.3,1.6-57.1-3.2-94.2-11c-53.8-11.3-103.7-21.9-103.7-21.9
	s-2.4-5.3,5.3-16c7.7-10.7,47.4-77.8,51-87.2c3.6-9.4,26.7-59.7,30.2-74.6s13-64,14.2-73.5c1.2-9.5-2.4-20.7,0.6-24.3
	c3-3.6,8.9-10.1,17.2-16.6c8.3-6.5,13.6-13,13.6-13l10.1,13l3,15.4l11.3,24.3l22.5-11.3l29.6-25.5L670.7,578.4z"/>
<path class="st7" d="M704.5,611.9l12.9,10.8c4.3,10,8.6,22.7,10.8,37.8c0.9,5.8,2.3,17.7,1.2,32.9c-0.7,10.4-2.4,19.3-4.1,26.1
	c-4.2,7.4-8.3,14.8-12.5,22.2c-13.6,2.7-24.9,2.5-32.6,1.8c-18.2-1.7-26.5-7-28.4-8.3c-2.9-1.9-5.1-3.9-6.5-5.3
	c1.6-6.9,4.1-17.2,7.7-29.6c6.9-24,10.4-36,17.8-49.2c4.7-8.3,12.8-20.4,26.7-32.7C699.8,616.1,702.1,614,704.5,611.9z"/>
<path class="st4" d="M546.5,507.6c-59.9-7.7-119.7-15.3-179.6-23c4.1-42.5,8.2-84.9,12.3-127.4c59.8,5.6,119.5,11.2,179.3,16.7
	C554.5,418.5,550.5,463.1,546.5,507.6z"/>
<path class="st11" d="M651.8,735.1l-16,30.8l-153.5,32.6l11.9,20.1c5.3,0.1,10.7,0.2,16,0.3c58.7,0.9,116.2-0.1,172.4-2.7
	c9.1-24.7,18.2-49.4,27.2-74.1L651.8,735.1z"/>
<path class="st16" d="M373.9,817.4h-73.2l0,0c0-15.5,12.5-28,28-28h17.2C361.3,789.4,373.9,801.9,373.9,817.4L373.9,817.4z"/>
<path class="st12" d="M480.8,820.8h-21c-6,0-11-4.9-11-11v-0.6c0-6,4.9-11,11-11h21c6,0,11,4.9,11,11v0.6
	C491.8,815.9,486.9,820.8,480.8,820.8z"/>
<g>
	<path class="st17" d="M512.5,817.4H201.6c-1.6,0-3-1.3-3-3v-1.9c0-1.6,1.3-3,3-3h310.9c1.6,0,3,1.3,3,3v1.9
		C515.5,816.1,514.2,817.4,512.5,817.4z"/>
	<g>
		<path class="st18" d="M389.7,470.8c-1.5,2,2.6,7,5.2,11c4.1,6.3,8.5,16.3,9,32.2l0,0c8,26.1,20.1,72.3,39.1,161.8
			c13.1,27,16.6,37.9,16,41.3c-0.1,0.3-0.3,1.6,0.4,2.5c1.7,2.2,7.4,0.7,10.9-0.8c0,0,4.7-2.1,7.7-5.7c7.6-9.2-8.1-44.5-16.6-66.3
			c-8-20.5-12.8-37.5-22.4-71.5c-4.8-17.3-10.3-34.4-14.7-51.7c-6.3-25.1-10.3-45.8-24.3-51.7C397.5,470.8,391.2,468.7,389.7,470.8z
			"/>
		<path class="st17" d="M462.3,721.4l-258.2,0.5c-5.1,0-9.7-2.9-11.9-7.5c-15-31.5-30.1-67.4-43.8-107.5
			c-13.8-40.3-23.8-78.2-31.2-112.6c-1.7-8,4.2-15.7,12.4-15.9c87.4-2.9,174.8-5.7,262.3-8.6c6.7-0.2,12.5,4.6,13.4,11.3
			c4.6,32.1,12,68.6,23.9,108c13.2,43.7,29.1,81.5,44.8,113.2C478.4,711.1,472.1,721.4,462.3,721.4z"/>
		<path class="st19" d="M297.6,813.2c-23.4,0.1-46.8,0.2-70.2,0.3c14.1-52,28.1-104,42.2-156c20.4,2.1,40.9,4.1,61.3,6.2
			C319.8,713.6,308.7,763.4,297.6,813.2z"/>
		<path class="st18" d="M331,663.5l-13,58.2c5.8,0,11.6,0,17.3,0C333.9,702.3,332.5,682.9,331,663.5z"/>
	</g>
</g>
<path class="st14" d="M545,984.3h108.2c11,0,19.9-8.9,19.9-19.9v-1.1c0-11-8.9-19.9-19.9-19.9H545c-11,0-19.9,8.9-19.9,19.9v1.1
	C525.1,975.4,534,984.3,545,984.3z"/>
<g>
	<rect x="206.7" y="841.4" class="st20" width="16.9" height="18.2"/>
	<rect x="180.1" y="841.4" class="st20" width="16.9" height="18.2"/>
	<rect x="180.1" y="858.4" class="st21" width="168" height="141.6"/>
	<rect x="81.4" y="841.4" class="st20" width="16.9" height="18.2"/>
	<rect x="304.1" y="841.4" class="st20" width="16.9" height="18.2"/>
	<rect x="486.7" y="841.4" class="st20" width="16.9" height="18.2"/>
	<rect x="605.8" y="841.4" class="st20" width="16.9" height="18.2"/>
	<path class="st22" d="M648.6,844.2H65.5c-7.2,0-13-5.8-13-13v-0.7c0-7.2,5.8-13,13-13h583.1c7.2,0,13,5.8,13,13v0.7
		C661.6,838.4,655.8,844.2,648.6,844.2z"/>
	<path class="st22" d="M180.1,1000c-40.2-0.3-80.4-0.6-120.6-0.9c-0.2-47.2-0.4-94.4-0.6-141.6c40.3,0.3,80.6,0.6,120.9,0.9
		C179.9,905.6,180,952.8,180.1,1000z"/>
	<rect x="475.5" y="858" class="st21" width="168" height="141.6"/>
</g>
<path class="st23" d="M482.5,384.9c-7.1,0.4-18.2-36.3-13.3-71.4c3-22,10.4-29.5,12.7-31.7c11.7-10.9,30.6-13.3,34.4-8
	c1.9,2.7-1.2,6,0.3,13.6c1.1,5.9,3.9,8.9,5.3,11.6c7.7,14.3-16.9,33.8-33.5,75.2C485.6,381.2,484.7,384.8,482.5,384.9z"/>
<path class="st10" d="M523.9,399.4l-130.5-13.9c-1.9-0.2-3.3-1.9-3.1-3.9l0,0c0.2-1.9,1.9-3.3,3.9-3.1l130.5,13.9
	c1.9,0.2,3.3,1.9,3.1,3.9l0,0C527.5,398.2,525.8,399.6,523.9,399.4z"/>
<path class="st10" d="M444.9,408.5l-53.4-5.7c-1.9-0.2-3.3-1.9-3.1-3.9l0,0c0.2-1.9,1.9-3.3,3.9-3.1l53.4,5.7
	c1.9,0.2,3.3,1.9,3.1,3.9l0,0C448.6,407.3,446.9,408.7,444.9,408.5z"/>
<path class="st10" d="M520.1,434.8l-61.8-6.6c-1.9-0.2-3.3-1.9-3.1-3.9l0,0c0.2-1.9,1.9-3.3,3.9-3.1l61.8,6.6
	c1.9,0.2,3.3,1.9,3.1,3.9l0,0C523.8,433.6,522,435,520.1,434.8z"/>
<path class="st10" d="M518.8,446.7l-130.5-13.9c-1.9-0.2-3.3-1.9-3.1-3.9l0,0c0.2-1.9,1.9-3.3,3.9-3.1l130.5,13.9
	c1.9,0.2,3.3,1.9,3.1,3.9l0,0C522.5,445.5,520.8,446.9,518.8,446.7z"/>
<path class="st10" d="M517.2,462.2l-130.5-13.9c-1.9-0.2-3.3-1.9-3.1-3.9l0,0c0.2-1.9,1.9-3.3,3.9-3.1l130.5,13.9
	c1.9,0.2,3.3,1.9,3.1,3.9l0,0C520.9,461,519.1,462.4,517.2,462.2z"/>
<path class="st10" d="M474.3,473.1l-89.3-9.5c-1.9-0.2-3.3-1.9-3.1-3.9l0,0c0.2-1.9,1.9-3.3,3.9-3.1l89.3,9.5
	c1.9,0.2,3.3,1.9,3.1,3.9l0,0C478,471.9,476.2,473.3,474.3,473.1z"/>
<path class="st22" d="M475.5,999.6c-3.4-0.3-6.8-0.6-10.2-0.9c0-47.2,0-94.4-0.1-141.6c3.4,0.3,6.8,0.6,10.2,0.9
	C475.4,905.2,475.4,952.4,475.5,999.6z"/>
<path class="st24" d="M804,982.7"/>
<path class="st7" d="M589.9,572.5c-2.2,0.2-4.8,0.6-7.6,1.3c-2.5,0.7-4.7,1.4-6.6,2.2c1.7,9.1,4.8,19.9,9.1,31.9
	c5,14.3,15.4,30.9,15.4,30.9s3.8,1.8,13.6-3.8c9.8-5.6,36.1-23.1,36.1-23.1c8.3-10.7,16.6-21.4,24.9-32.2c-2.9-1.4-6.3-2.9-10.4-4.1
	c-3.8-1.1-7.3-1.8-10.3-2.2c0.3,2.7,0.5,5.3,0.8,8c0.4,1.3,0.8,3.3,0.7,5.7c0,0-0.1,3.1-1.5,6.3c-1.8,4.4-14.3,14.4-33.5,24.4
	l-14.8,9.2c0,0-1.8-3.7-4-8.6c-3.3-7.3-4.8-10.9-6.4-15.7c-3.7-11.1-4.7-20.7-5.2-25.8C590.1,575.1,590,573.6,589.9,572.5z"/>
<path class="st4" d="M830.9,298.5c-59.7,9-119.3,17.9-179,26.9c-7.6-42-15.3-84-22.9-125.9c59-10.9,118-21.9,177-32.8
	C814.3,210.5,822.6,254.5,830.9,298.5z"/>
<path class="st11" d="M720.8,469.9c0,16.5-20.8,53.7-59.6,68.9c-13.5,5.3-11.9,1.1-44.4,9.8c-31.7,8.4-31.9,12.5-45.3,12.9
	c-29.2,0.8-51.3-13.2-61.3-19.6c-12.2-7.7-29.8-18.9-40-41.3c-2.4-5.2-9.1-20.7-6.7-40.4c1.1-9,2.1-17.3,8-25.3
	c4.2-5.8,8.1-7.5,10.2-14.2c0.7-2.1,1-4.4,0.9-16c-0.1-7.1-0.1-10.7-0.4-15.1c-0.4-6.3-2-62.4,31.6-88.9
	c21-16.6,46.4-15.3,68.4-14.2c13.8,0.7,46.5,2.3,76,25.8c21.3,16.9,29.7,36.3,42.7,66.2c3,6.8,9.3,30.1,10.7,45.3
	c0.2,2.5,0.6,8.2,2.7,15.6c1.7,5.9,3,7.7,4.4,12.9C718.5,452.2,720.7,459.9,720.8,469.9z"/>
<path class="st10" d="M771.1,295.5c-3-8.8-7.8-22.9-18.1-37c-21.1-29.1-51.5-39.6-75-47.7c-24.7-8.5-45-9.9-64.3-11.3
	c-18.4-1.3-29.8-0.3-36.9,0.8c-7.8,1.2-16.9,3.3-18.2,3.6c-5.9,1.4-11,2.6-16.8,4.5c-11.6,3.9-19.9,8.8-22.5,10.7
	c-20.7,15.2-34.8,35.1-37.6,44.4c-0.8,2.5-1.7,7.4-5,13.6c-1.6,3-2.3,3.6-2.1,4.4c0.1,0.5,0.5,0.9,1.2,1.2l-0.9,0.1
	c14,12,36.9,28.7,68.7,40.7c35.2,13.3,66.2,15.1,85.5,14.8c-6.1-6.5-12.1-13-18.2-19.6l38.2-8.2l0.1-0.1c0.6,0.4,1.3,0.7,2,1.2
	c21.8,13.3,31.3,34.3,39.7,53c16.2,36.1,3.5,71.6,16.6,76.4c0.5,0.2,6,2.1,8.6-0.3c2.8-2.6-1-7.4,1.2-12.7c3-7.3,14.9-9.3,18.1-9.8
	c8.1-1.3,10.5,1.1,15.1-1.2c6.4-3.1,8.4-11.1,9.5-15.1c9.2-34.3,18-32.2,19.9-56.3C781.2,325.2,775.8,309.3,771.1,295.5z"/>
<path class="st25" d="M623.1,345.2c-1,1.2-2.7,2.8-5.2,3.8c-3.6,1.5-4.9,0.1-11.5,0.2c-6.6,0.1-9.3,1.6-13.9-0.3
	c-1.1-0.4-2-1-2.5-1.3c1-1.7,3.7-5.9,9.1-8.3c6.8-3,13.1-1.1,15.2-0.3C619,340.7,621.9,343.7,623.1,345.2z"/>
<ellipse class="st26" cx="510.6" cy="388.6" rx="17.9" ry="22.1"/>
<ellipse class="st27" cx="508.7" cy="396.4" rx="10.2" ry="14.1"/>
<ellipse transform="matrix(9.980074e-02 -0.995 0.995 9.980074e-02 159.3175 961.31)" class="st26" cx="610.9" cy="392.6" rx="23.5" ry="19.1"/>
<ellipse transform="matrix(4.200074e-02 -0.9991 0.9991 4.200074e-02 182.1555 990.968)" class="st27" cx="607.8" cy="400.5" rx="15.1" ry="10.5"/>
<path class="st28" d="M543.9,446.2c-1.6-0.3-3-1.4-3.5-2.9c-0.7-2.2-2.2-4-4.1-4.9c-2.9-1.3-6.5-0.4-9,2.2c-1.2,1.3-3,1.8-4.6,1.2
	c-0.2-0.1-0.5-0.1-0.7-0.2c-2.6-0.9-3.9-3.9-2.5-6.3c4-7.1,12.4-10.4,19.4-8c5.6,2,9.7,7.6,10.3,14.1
	C549.4,444.3,546.9,446.7,543.9,446.2C543.9,446.3,543.9,446.2,543.9,446.2z"/>
<path class="st29" d="M516.8,484.7c-0.4,1.3-2.9,11.8,8.8,21.3c7.6,6.2,20.1,11.2,32.6,10.5c16.1-0.9,28.6-11,27.5-24.4"/>
<path class="st30" d="M580.1,493.4c1.1,2.2,1.8,5.1-0.5,7.1c-1.5,1.3-4.8,2.4-27.7-0.1c-22.2-2.4-26-4.3-28.2-6.1
	c-3.1-2.5-3.5-5.4-3.5-7.4"/>
<path class="st25" d="M533.7,349c-1.2,1-3.2,2.2-5.8,2.8c-3.8,0.8-4.9-0.8-11.3-1.9c-6.5-1.1-9.4-0.2-13.6-2.8
	c-1-0.7-1.8-1.3-2.3-1.7c1.3-1.5,4.7-5.1,10.5-6.5c7.3-1.7,13.1,1.3,15,2.5C530.4,343.8,532.7,347.3,533.7,349z"/>
<polygon class="st11" points="703.4,442.5 712.9,442.5 715.2,474.1 701.4,467 "/>
<path class="st11" d="M713,439.2c2.6-7.7,4.7-13.7,10.2-17.8c7.5-5.5,16.7-4.1,20-3.6c2.9,0.4,11.1,1.9,17.3,8.7
	c8.3,9.1,8.9,23.1,4,33.6c-6,12.6-18.4,16.5-21.3,17.3c0,0-12.3,3.4-24.7-2.4c-2.8-1.3-4.6-2.2-6.2-4.2c-4.5-5.5-3.1-13.8-1.8-21.8
	C711.4,444,712.6,440.3,713,439.2z"/>
<path class="st28" d="M721,439.2c-1.3-2.5,3-7.8,7.3-10.9c1.5-1,10.6-7.4,20.9-3.1s12.2,15.3,12.4,16.7c1.9,12.3-7.7,20.7-8.7,21.6
	c0,0-7.4,6.2-18.2,5.8c-5.7-0.2-10.9-2.6-10.9-2.6c-0.2,0-0.5-0.1-0.7-0.3c-0.9-1.2,3.5-4.7,5.8-9.6c2.2-4.8,2.8-11.9-0.4-14.9
	C725.9,439.3,722.1,441.2,721,439.2z"/>
<g>
	<ellipse class="st31" cx="607.9" cy="400.3" rx="52.2" ry="61"/>
	<g>
		<path class="st25" d="M482.4,321.1c-29.7,0-53.8,28.6-53.8,63.9s24.1,63.9,53.8,63.9c29.7,0,53.8-28.6,53.8-63.9
			S512.1,321.1,482.4,321.1z M482.4,444.9c-27.9,0-50.4-26.8-50.4-59.9s22.6-59.9,50.4-59.9s50.4,26.8,50.4,59.9
			S510.3,444.9,482.4,444.9z"/>
		<path class="st25" d="M554.8,401c-1.3-1-4.9-3.5-10.2-3.9c-4.9-0.4-8.6,1.3-10.2,2.1c0.1-1.8,0.2-3.6,0.3-5.4
			c1.2-0.8,4.9-3.1,10.1-2.8c5.8,0.3,9.5,3.6,10.4,4.5C555.1,397.3,555,399.1,554.8,401z"/>
		<path class="st25" d="M607.9,336.4c-29.7,0-53.8,28.6-53.8,63.9s24.1,63.9,53.8,63.9s53.8-28.6,53.8-63.9S637.6,336.4,607.9,336.4
			z M607.9,460.2c-27.9,0-50.4-26.8-50.4-59.9s22.6-59.9,50.4-59.9s50.4,26.8,50.4,59.9S635.7,460.2,607.9,460.2z"/>
		<path class="st25" d="M659.6,405.7c24.3-4,48.6-8,72.9-12c0.1-2.4,0.1-4.8,0.1-7.3c-24.2,1.5-48.5,3-72.7,4.4
			C659.8,395.8,659.7,400.7,659.6,405.7z"/>
	</g>
	<ellipse class="st31" cx="482.3" cy="384.9" rx="52.2" ry="61"/>
</g>
<path class="st32" d="M325.1,798.3l-5,4.2c-1.1,0.9-2.7,0.8-3.7-0.3l-0.1-0.1c-0.9-1.1-0.8-2.7,0.3-3.7l5-4.2
	c1.1-0.9,2.7-0.8,3.7,0.3l0.1,0.1C326.4,795.7,326.2,797.3,325.1,798.3z"/>
<path class="st4" d="M290,82.3"/>
<path class="st10" d="M556.5,84.5H425.2c-1.9,0-3.5-1.6-3.5-3.5l0,0c0-1.9,1.6-3.5,3.5-3.5h131.2c1.9,0,3.5,1.6,3.5,3.5l0,0
	C560,82.9,558.4,84.5,556.5,84.5z"/>
<path class="st10" d="M479,101.9h-53.7c-1.9,0-3.5-1.6-3.5-3.5l0,0c0-1.9,1.6-3.5,3.5-3.5H479c1.9,0,3.5,1.6,3.5,3.5l0,0
	C482.5,100.3,480.9,101.9,479,101.9z"/>
<path class="st10" d="M556.5,120h-62.1c-1.9,0-3.5-1.6-3.5-3.5l0,0c0-1.9,1.6-3.5,3.5-3.5h62.1c1.9,0,3.5,1.6,3.5,3.5l0,0
	C560,118.5,558.4,120,556.5,120z"/>
<path class="st10" d="M556.5,132H425.2c-1.9,0-3.5-1.6-3.5-3.5l0,0c0-1.9,1.6-3.5,3.5-3.5h131.2c1.9,0,3.5,1.6,3.5,3.5l0,0
	C560,130.4,558.4,132,556.5,132z"/>
<path class="st10" d="M556.5,147.6H425.2c-1.9,0-3.5-1.6-3.5-3.5l0,0c0-1.9,1.6-3.5,3.5-3.5h131.2c1.9,0,3.5,1.6,3.5,3.5l0,0
	C560,146.1,558.4,147.6,556.5,147.6z"/>
<path class="st10" d="M515,163h-89.8c-1.9,0-3.5-1.6-3.5-3.5l0,0c0-1.9,1.6-3.5,3.5-3.5H515c1.9,0,3.5,1.6,3.5,3.5l0,0
	C518.5,161.4,516.9,163,515,163z"/>
<path class="st10" d="M810.1,279.7l-145.8,25.6c-1.9,0.3-3.2,2.2-2.9,4.1l0.3,1.7c0.3,1.9,2.2,3.2,4.1,2.9l145.8-25.6
	c1.9-0.3,3.2-2.2,2.9-4.1l-0.3-1.7C813.9,280.7,812,279.4,810.1,279.7z"/>
<path class="st10" d="M720.8,273.4l-60.2,10.6c-1.9,0.3-3.2,2.2-2.9,4.1l0.3,1.7c0.3,1.9,2.2,3.2,4.1,2.9l60.2-10.6
	c1.9-0.3,3.2-2.2,2.9-4.1l-0.3-1.7C724.5,274.3,722.7,273,720.8,273.4z"/>
<path class="st10" d="M802.5,236.1l-69.4,12.2c-1.9,0.3-3.2,2.2-2.9,4.1l0.3,1.7c0.3,1.9,2.2,3.2,4.1,2.9l69.4-12.2
	c1.9-0.3,3.2-2.2,2.9-4.1l-0.3-1.7C806.2,237.1,804.4,235.8,802.5,236.1z"/>
<path class="st10" d="M799.9,221.5L654.1,247c-1.9,0.3-3.2,2.2-2.9,4.1l0.3,1.7c0.3,1.9,2.2,3.2,4.1,2.9l145.8-25.6
	c1.9-0.3,3.2-2.2,2.9-4.1l-0.3-1.7C803.7,222.4,801.8,221.1,799.9,221.5z"/>
<path class="st10" d="M796.5,202.3l-145.8,25.6c-1.9,0.3-3.2,2.2-2.9,4.1l0.3,1.7c0.3,1.9,2.2,3.2,4.1,2.9L798.1,211
	c1.9-0.3,3.2-2.2,2.9-4.1l-0.3-1.7C800.3,203.2,798.5,202,796.5,202.3z"/>
<path class="st10" d="M747.4,191.5l-100,17.5c-1.9,0.3-3.2,2.2-2.9,4.1l0.3,1.7c0.3,1.9,2.2,3.2,4.1,2.9l100-17.5
	c1.9-0.3,3.2-2.2,2.9-4.1l-0.3-1.7C751.2,192.4,749.3,191.2,747.4,191.5z"/>
<path class="st0" d="M126,109c58.1,16.3,116.1,32.6,174.1,48.9c-8.8,32.4-17.7,64.8-26.5,97.2c-58.2-14.7-116.4-29.3-174.5-44
	C108.1,177,117,143,126,109z"/>
<path class="st1" d="M125.2,191.3L252,225.2c1.9,0.5,3,2.4,2.5,4.3l0,0c-0.5,1.9-2.4,3-4.3,2.5l-126.8-33.9c-1.9-0.5-3-2.4-2.5-4.3
	l0,0C121.4,191.9,123.3,190.8,125.2,191.3z"/>
<path class="st1" d="M204.6,194.5l51.9,13.9c1.9,0.5,3,2.4,2.5,4.3l0,0c-0.5,1.9-2.4,3-4.3,2.5l-51.9-13.9c-1.9-0.5-3-2.4-2.5-4.3
	l0,0C200.8,195.1,202.7,194,204.6,194.5z"/>
<path class="st1" d="M134.4,156.9l60,16c1.9,0.5,3,2.4,2.5,4.3l0,0c-0.5,1.9-2.4,3-4.3,2.5l-60-16c-1.9-0.5-3-2.4-2.5-4.3l0,0
	C130.6,157.6,132.5,156.4,134.4,156.9z"/>
<path class="st1" d="M137.5,145.4l126.8,33.9c1.9,0.5,3,2.4,2.5,4.3l0,0c-0.5,1.9-2.4,3-4.3,2.5l-126.8-33.9c-1.9-0.5-3-2.4-2.5-4.3
	l0,0C133.7,146,135.6,144.9,137.5,145.4z"/>
<path class="st1" d="M141.5,130.3l126.8,33.9c1.9,0.5,3,2.4,2.5,4.3l0,0c-0.5,1.9-2.4,3-4.3,2.5l-126.8-33.9c-1.9-0.5-3-2.4-2.5-4.3
	l0,0C137.7,130.9,139.6,129.8,141.5,130.3z"/>
<g>
	<path class="st0" d="M221.8,286.3c-59.5,10-119,20-178.5,30c-8.4-41.8-16.8-83.7-25.1-125.5c58.8-12,117.6-23.9,176.4-35.9
		C203.7,198.7,212.7,242.5,221.8,286.3z"/>
	<path class="st1" d="M179.5,182.9L50.7,208.1c-1.9,0.4-3.8-0.9-4.1-2.8l0,0c-0.4-1.9,0.9-3.8,2.8-4.1l128.8-25.2
		c1.9-0.4,3.8,0.9,4.1,2.8l0,0C182.7,180.6,181.4,182.5,179.5,182.9z"/>
	<path class="st1" d="M106.8,214.9L54,225.2c-1.9,0.4-3.8-0.9-4.1-2.8l0,0c-0.4-1.9,0.9-3.8,2.8-4.1l52.7-10.3
		c1.9-0.4,3.8,0.9,4.1,2.8l0,0C109.9,212.6,108.7,214.5,106.8,214.9z"/>
	<path class="st1" d="M186.3,217.8l-60.9,11.9c-1.9,0.4-3.8-0.9-4.1-2.8l0,0c-0.4-1.9,0.9-3.8,2.8-4.1l60.9-11.9
		c1.9-0.4,3.8,0.9,4.1,2.8l0,0C189.5,215.6,188.2,217.4,186.3,217.8z"/>
	<path class="st1" d="M188.6,229.5L59.8,254.7c-1.9,0.4-3.8-0.9-4.1-2.8l0,0c-0.4-1.9,0.9-3.8,2.8-4.1l128.8-25.2
		c1.9-0.4,3.8,0.9,4.1,2.8l0,0C191.8,227.3,190.5,229.2,188.6,229.5z"/>
	<path class="st1" d="M191.6,244.9L62.8,270.1c-1.9,0.4-3.8-0.9-4.1-2.8l0,0c-0.4-1.9,0.9-3.8,2.8-4.1l128.8-25.2
		c1.9-0.4,3.8,0.9,4.1,2.8l0,0C194.8,242.6,193.5,244.5,191.6,244.9z"/>
</g>
<path class="st4" d="M1047.5,319.7"/>
<path class="st33" d="M976.5,169.5c0.4,60.3,0.8,120.6,1.2,180.9c-33.6,0.5-67.1,0.9-100.7,1.4c-2-60-4-119.9-6-179.9
	C906.1,171,941.3,170.2,976.5,169.5z"/>
<path class="st1" d="M928.5,297l-31.3-1.8c-1.1-0.1-2-1.7-2-3.6l0,0c0-1.9,1-3.5,2.1-3.4l31.3,1.8c1.1,0.1,2,1.7,2,3.6l0,0
	C930.6,295.6,929.7,297.1,928.5,297z"/>
<path class="st1" d="M950,277.6l-53.7-1.5c-1.9,0-3.5-1.7-3.4-3.6l0,0c0-1.9,1.7-3.5,3.6-3.4l53.7,1.5c1.9,0,3.5,1.7,3.4,3.6l0,0
	C953.5,276.1,951.9,277.7,950,277.6z"/>
<path class="st1" d="M952.4,261.3l-53.7-1.5c-1.9,0-3.5-1.7-3.4-3.6l0,0c0-1.9,1.7-3.5,3.6-3.4l53.7,1.5c1.9,0,3.5,1.7,3.4,3.6l0,0
	C955.9,259.8,954.3,261.3,952.4,261.3z"/>
<path class="st1" d="M951,198.6l-53.7-1.5c-1.9,0-3.5-1.7-3.4-3.6l0,0c0-1.9,1.7-3.5,3.6-3.4l53.7,1.5c1.9,0,3.5,1.7,3.4,3.6l0,0
	C954.6,197.2,953,198.7,951,198.6z"/>
<path class="st1" d="M963.2,240.2l-65.2-1.3c-2.4,0-4.2-1.7-4.2-3.6l0,0c0.1-1.9,2-3.5,4.4-3.4l65.2,1.3c2.4,0,4.2,1.7,4.2,3.6l0,0
	C967.6,238.7,965.6,240.2,963.2,240.2z"/>
</svg>
