<svg id="Layer_1" data-name="Layer 1" xmlns="http://www.w3.org/2000/svg" viewBox="0 0 926.5 926.5"><defs><style>.cls-1{fill:#f5ffff;stroke:#000;stroke-miterlimit:10;stroke-width:0.5px;}.cls-2{fill:#1f1f1f;}</style></defs><circle class="cls-1" cx="463.25" cy="463.25" r="463"/><path class="cls-2" d="M738,197c-36.73-84.82-256.72-62.3-298-57.47l-4,.47c-32.37,4.05-132.13,16.54-196,94-12.71,15.42-39.09,48.25-45,97a176.83,176.83,0,0,0,10,81c42.37,113.25,182.18,115.47,193,202,4.05,32.39-11.81,62.22,7,78,8.75,7.34,17.94,5.75,52,5,49.64-1.1,74.48-.88,98,1,20.31,1.62,40.79,1.4,61,4,17.12,2.2,25.71,4.24,32-1,9.83-8.19,4.17-26,1-51-7.82-61.73,10.29-77.51-6-112-4.43-9.38-12-21.64-26-34-10.52-3.51-26.85-8.86-47-15-47.86-14.59-59.95-16.21-74-29-3.42-3.11-27.65-25.18-23-50,3.12-16.64,17.71-26.54,26-32,50.45-33.21,128-14,150-8,9.89,5.34,69.61,36.95,91,16,3.87-3.79,5.35-8.18,7-15,10.44-43.07,4.07-84.75-1-119C737.82,196.72,738.6,198.38,738,197Z" transform="translate(-36.25 -37.25)"/><rect class="cls-2" x="362.75" y="681.75" width="246" height="189" rx="34.81"/></svg>