<svg id="Layer_1" data-name="Layer 1" xmlns="http://www.w3.org/2000/svg" viewBox="0 0 628.92 666.34"><defs><style>.cls-1{fill:#fff;}</style></defs><rect class="cls-1" x="152.5" y="38.36" width="153" height="42" rx="21"/><rect class="cls-1" x="726.5" y="513" width="153" height="41" rx="20.5" transform="translate(1141 -430.64) rotate(90)"/><rect class="cls-1" x="653.17" y="132.32" width="61.63" height="440" rx="30.82" transform="translate(135.12 -492.27) rotate(35.41)"/><rect class="cls-1" x="715.61" y="151.89" width="18.49" height="118.57" rx="9.25" transform="translate(60.9 -542.04) rotate(35.41)"/><rect class="cls-1" x="750.05" y="187.01" width="25.37" height="11.73" transform="translate(57.3 -567.37) rotate(35.41)"/><rect class="cls-1" x="560.13" y="424.42" width="30.72" height="161.31" rx="15.36" transform="translate(203.55 -401.16) rotate(35.41)"/><path class="cls-1" d="M782.5,495V685.31a100.19,100.19,0,0,1-100.19,100.2H338.69A100.2,100.2,0,0,1,238.5,685.31V341.69A100.19,100.19,0,0,1,338.69,241.5H474v-42H295.69A100.18,100.18,0,0,0,195.5,299.69v427.6A100.18,100.18,0,0,0,295.69,827.48h427.6A100.18,100.18,0,0,0,823.48,727.29V495Z" transform="translate(-195.5 -161.14)"/></svg>