<svg id="Layer_1" data-name="Layer 1" xmlns="http://www.w3.org/2000/svg" viewBox="0 0 869 869"><defs><style>.cls-1,.cls-2,.cls-3{fill:none;}.cls-1,.cls-2,.cls-3,.cls-4{stroke:#f5ffff;stroke-miterlimit:10;}.cls-1{stroke-width:50px;}.cls-2{stroke-width:40px;}.cls-3{stroke-width:20px;}.cls-4{fill:#f5ffff;}</style></defs><rect class="cls-1" x="25" y="25" width="819" height="819" rx="100.19"/><polygon class="cls-2" points="121.5 706.5 656.33 706.5 388.5 158.5 121.5 706.5"/><path class="cls-3" d="M413.82,353.66l32.08,70.93,47.27-58.91,69.23,34.13" transform="translate(-88.5 -65.5)"/><path class="cls-2" d="M614.33,525Q640,467.51,665.76,410,750.87,592.5,836,775l-294.68-3" transform="translate(-88.5 -65.5)"/><polygon class="cls-4" points="464.75 314.52 400 300 357 359 319.56 300 122 707 656 707 464.75 314.52"/><polygon class="cls-4" points="624.83 446.5 600.5 503.5 536.5 474.5 588.5 661.5 721.5 706.5 727.87 667.42 624.83 446.5"/></svg>