<svg id="Layer_1" data-name="Layer 1" xmlns="http://www.w3.org/2000/svg" viewBox="0 0 628 657.51"><defs><style>.cls-1{fill:#fff;}</style></defs><rect class="cls-1" x="152.5" y="29.53" width="153" height="42" rx="21"/><rect class="cls-1" x="726.5" y="513" width="153" height="41" rx="20.5" transform="translate(1141 -439.47) rotate(90)"/><path class="cls-1" d="M782.5,495V685.31a100.19,100.19,0,0,1-100.19,100.2H338.69A100.2,100.2,0,0,1,238.5,685.31V341.69A100.19,100.19,0,0,1,338.69,241.5H474v-42H295.69A100.18,100.18,0,0,0,195.5,299.69v427.6A100.18,100.18,0,0,0,295.69,827.48h427.6A100.18,100.18,0,0,0,823.48,727.29V495Z" transform="translate(-195.5 -169.97)"/><path class="cls-1" d="M793,416,568,191a323.31,323.31,0,0,1,255,11,435.83,435.83,0,0,0-30,214Z" transform="translate(-195.5 -169.97)"/><path class="cls-1" d="M600,509c-14.93-14.71-45.68-49.36-55-102-2.21-12.51-15.28-86.36,26.91-127l1.09-1a492.33,492.33,0,0,1,76.19-58.88q54.09,54.11,108.19,108.19A234.7,234.7,0,0,0,659,391C616,437.14,603.83,487.92,600,509Z" transform="translate(-195.5 -169.97)"/></svg>