<svg id="Layer_1" data-name="Layer 1" xmlns="http://www.w3.org/2000/svg" viewBox="0 0 843 843"><defs><style>.cls-1{fill:none;stroke-width:50px;}.cls-1,.cls-2{stroke:#1f1f1f;stroke-miterlimit:10;}.cls-2{fill:#1f1f1f;stroke-width:8px;}</style></defs><rect class="cls-1" x="25" y="25" width="793" height="793" rx="100.19"/><path class="cls-2" d="M169,133H644a26,26,0,0,1,26,26h0a26,26,0,0,1-26,26H169a26,26,0,0,1-26-26h0A26,26,0,0,1,169,133Z" transform="translate(15.5 15.5)"/><path class="cls-2" d="M169,250H644a26,26,0,0,1,26,26h0a26,26,0,0,1-26,26H169a26,26,0,0,1-26-26h0A26,26,0,0,1,169,250Z" transform="translate(15.5 15.5)"/><rect class="cls-2" x="158.5" y="417.5" width="527" height="264" rx="26"/></svg>