<svg id="Layer_1" data-name="Layer 1" xmlns="http://www.w3.org/2000/svg" viewBox="0 0 1020 957"><defs><style>.cls-1{fill:none;stroke:#1a75ff;stroke-miterlimit:10;stroke-width:50px;}.cls-2{fill:#1a75ff;}</style></defs><ellipse class="cls-1" cx="510" cy="478.5" rx="485" ry="453.5"/><path class="cls-2" d="M745.28,211.38c-8.29.38-16.07,2.76-23.1,5.52h-.13c-7,2.76-40.54,16.95-91.51,38.29S513.54,304.4,448,332C317.07,387.13,188.4,441.49,188.4,441.49l1.5-.63a78.76,78.76,0,0,0-18.2,9.29,48.82,48.82,0,0,0-14.44,14.06,41.94,41.94,0,0,0-6.9,27.49c2.26,17.83,13.81,28.63,22.09,34.53A71.56,71.56,0,0,0,188.9,535h.25l120.77,40.68C315.31,593,346.7,696.2,354.23,719.93c4.39,14.19,8.79,23.1,14.19,29.88a32.67,32.67,0,0,0,9.41,8.66l4.52,2.13,1.51.51-1.26-.25,1,.5,2.88.63c19.09,5.77,34.53-6,34.53-6l.88-.63,71.3-64.9,119.51,91.64,2.76,1.13c25,10.92,50.09,4.77,63.4-5.9a63.94,63.94,0,0,0,18.58-24.6l.88-2.26,92.39-473c2.64-11.67,3.27-22.59.38-33.27s-10.29-20.58-19.33-25.86A45.39,45.39,0,0,0,745.28,211.38Zm-2.51,50.72a13.68,13.68,0,0,1-.5,4.39v.25l-91.4,468L648,738.26c-1.89,1.51-3.52,2.51-11.55-.63l-146.13-112-88.25,80.47,18.58-118.38S649.49,374.33,659.41,365.16s6.53-11,6.53-11c.63-11.18-14.81-3.27-14.81-3.27L350,537.27l-.12-.5L205.59,488.19v-.13l-.37-.12.75-.25.75-.38.76-.25s128.8-54.23,259.86-109.47C532.87,350,599,322.1,649.75,300.76s88.37-37,90.51-37.91Z" transform="translate(10 -21)"/></svg>