<svg id="Layer_1" data-name="Layer 1" xmlns="http://www.w3.org/2000/svg" viewBox="0 0 1020 957"><defs><style>.cls-1{fill:none;stroke:#1a75ff;stroke-miterlimit:10;stroke-width:50px;}.cls-2{fill:#1a75ff;fill-rule:evenodd;}</style></defs><ellipse class="cls-1" cx="510" cy="478.5" rx="485" ry="453.5"/><path class="cls-2" d="M564.37,589.55c11.82-3.45,25.67,11.16,40.67,27,9.82,10.36,20.12,21.24,30.67,27.9,20.14,12.72,35.43,9.93,35.43,9.93l71.24-.91s37.25-2.11,19.59-29.07l-.48-.78c-2.54-4.25-13.1-22-52.48-55.61-19-16.17-28.78-24.38-29.72-33.5C678,522.1,693.14,508,724.12,470c32.76-40.18,45.86-64.72,41.76-75.21-3.89-10-28-7.37-28-7.37l-80.19.46s-5.94-.75-10.35,1.68-7.1,7.92-7.1,7.92-12.68,31.09-29.6,57.54c-35.72,55.79-50,58.74-55.83,55.28-11.39-6.78-10.85-25-10.38-40.91.09-3.07.18-6.05.18-8.85,0-12.45.48-23.23.88-32.52,1.37-31.05,2-45.45-18.22-49.94-8.72-1.94-15.13-3.21-37.44-3.43-28.61-.26-52.82.1-66.54,6.27-9.13,4.1-16.17,13.27-11.87,13.8,5.3.65,17.3,3,23.66,10.95C443.31,416,443,439.09,443,439.09s4.72,63.66-11,71.56c-10.8,5.42-25.62-5.65-57.47-56.27-16.3-25.93-28.62-54.59-28.62-54.59s-2.37-5.35-6.62-8.23C334.14,388.08,327,387,327,387l-76.2.45s-11.45.29-15.65,4.88c-3.73,4.05-.29,12.48-.29,12.48S294.49,533.26,362.05,598c61.95,59.34,132.28,55.45,132.28,55.45h31.88s9.62-1,14.55-5.86c4.51-4.46,4.36-12.89,4.36-12.89S544.52,595.36,564.37,589.55Z" transform="translate(10 -21)"/></svg>